<svg width="1200" height="750" viewBox="0 0 1200 750" fill="none" xmlns="http://www.w3.org/2000/svg">
  <rect width="1200" height="750" rx="48" fill="url(#bg)"/>
  <rect x="174" y="370" width="168" height="212" rx="22" fill="#EAF7FF"/>
  <rect x="330" y="314" width="188" height="268" rx="22" fill="#D2EEFF"/>
  <rect x="512" y="258" width="212" height="324" rx="22" fill="#B0E0FF"/>
  <rect x="708" y="332" width="148" height="250" rx="22" fill="#CDEBFF"/>
  <rect x="846" y="282" width="180" height="300" rx="22" fill="#E7F7FF"/>
  <path d="M214 410H302M214 454H302M214 498H302M368 358H480M368 404H480M368 450H480M368 496H480M550 304H686M550 352H686M550 400H686M550 448H686M550 496H686M744 378H820M744 424H820M744 470H820M882 330H990M882 376H990M882 422H990M882 468H990" stroke="#7CBDE8" stroke-width="8" stroke-linecap="round"/>
  <path d="M150 596H1050" stroke="#7EB8E5" stroke-width="12" stroke-linecap="round"/>
  <path d="M196 246C298 170 416 160 526 206C624 248 692 345 798 372C894 396 969 356 1038 264" stroke="#FFFFFF" stroke-width="12" stroke-linecap="round"/>
  <path d="M884 192C868 168 840 154 808 154C760 154 722 192 722 240C722 324 808 350 808 350C808 350 894 324 894 240C894 222 890 206 884 192Z" fill="#40C4FF"/>
  <path d="M794 236C818 216 842 201 870 189" stroke="#EFFFFF" stroke-width="10" stroke-linecap="round"/>
  <circle cx="808" cy="240" r="12" fill="#EFFFFF"/>
  <defs>
    <linearGradient id="bg" x1="30" y1="24" x2="1116" y2="724" gradientUnits="userSpaceOnUse">
      <stop stop-color="#F3FBFF"/>
      <stop offset="0.42" stop-color="#88D3FF"/>
      <stop offset="1" stop-color="#005CA8"/>
    </linearGradient>
  </defs>
</svg>
