<svg width="1200" height="750" viewBox="0 0 1200 750" fill="none" xmlns="http://www.w3.org/2000/svg">
  <rect width="1200" height="750" rx="48" fill="url(#bg)"/>
  <circle cx="908" cy="152" r="68" fill="#FFF6BA"/>
  <path d="M94 560H1110" stroke="#74B7E7" stroke-width="10" stroke-linecap="round"/>
  <path d="M124 560C222 474 332 437 452 449C594 463 638 552 790 552C903 552 987 514 1075 440V560H124Z" fill="#B4E2FF" fill-opacity="0.72"/>
  <path d="M170 560C270 500 362 486 474 502C589 518 650 594 805 588C890 584 969 552 1060 497V638H170Z" fill="#84C8F4" fill-opacity="0.82"/>
  <rect x="328" y="434" width="178" height="92" rx="14" fill="#005CA8"/>
  <rect x="344" y="446" width="34" height="66" fill="#DBF4FF"/>
  <rect x="386" y="446" width="34" height="66" fill="#DBF4FF"/>
  <rect x="428" y="446" width="34" height="66" fill="#DBF4FF"/>
  <rect x="470" y="446" width="20" height="66" fill="#DBF4FF"/>
  <path d="M418 526V592" stroke="#355C7D" stroke-width="10" stroke-linecap="round"/>
  <path d="M862 260V560" stroke="#F8FDFF" stroke-width="14" stroke-linecap="round"/>
  <path d="M862 264L790 326L862 348L934 326L862 264Z" fill="#F8FDFF"/>
  <path d="M862 318L816 240L794 330L862 318Z" fill="#D4F2FF"/>
  <path d="M862 318L906 240L932 330L862 318Z" fill="#D4F2FF"/>
  <circle cx="862" cy="318" r="22" fill="#40C4FF"/>
  <path d="M182 264C242 192 334 154 438 162C520 168 600 210 670 280" stroke="#FFFFFF" stroke-opacity="0.46" stroke-width="4" stroke-dasharray="14 12"/>
  <defs>
    <linearGradient id="bg" x1="86" y1="88" x2="1110" y2="662" gradientUnits="userSpaceOnUse">
      <stop stop-color="#E6F7FF"/>
      <stop offset="0.54" stop-color="#8ED6FF"/>
      <stop offset="1" stop-color="#0068B5"/>
    </linearGradient>
  </defs>
</svg>
