<svg width="1200" height="750" viewBox="0 0 1200 750" fill="none" xmlns="http://www.w3.org/2000/svg">
  <rect width="1200" height="750" rx="48" fill="url(#bg)"/>
  <circle cx="270" cy="230" r="160" fill="url(#glow)" opacity="0.85"/>
  <circle cx="270" cy="230" r="126" stroke="#FFFFFF" stroke-opacity="0.52" stroke-width="4"/>
  <circle cx="270" cy="230" r="84" stroke="#FFFFFF" stroke-opacity="0.52" stroke-width="4"/>
  <path d="M270 72V388M112 230H428M160 140C235 186 305 277 350 322M161 321C230 268 309 187 378 139" stroke="#FFFFFF" stroke-opacity="0.55" stroke-width="4" stroke-linecap="round"/>
  <rect x="530" y="132" width="480" height="92" rx="22" fill="white" fill-opacity="0.72"/>
  <rect x="530" y="254" width="410" height="92" rx="22" fill="white" fill-opacity="0.58"/>
  <rect x="530" y="376" width="350" height="92" rx="22" fill="white" fill-opacity="0.42"/>
  <path d="M530 178H1010" stroke="#0068B5" stroke-opacity="0.18" stroke-width="2"/>
  <path d="M530 300H940" stroke="#0068B5" stroke-opacity="0.18" stroke-width="2"/>
  <path d="M530 422H880" stroke="#0068B5" stroke-opacity="0.18" stroke-width="2"/>
  <circle cx="560" cy="178" r="12" fill="#0068B5"/>
  <circle cx="560" cy="300" r="12" fill="#40C4FF"/>
  <circle cx="560" cy="422" r="12" fill="#7AD3FF"/>
  <rect x="530" y="530" width="240" height="110" rx="28" fill="#005BAA" fill-opacity="0.88"/>
  <text x="572" y="596" fill="white" font-family="Arial, Helvetica, sans-serif" font-size="42" font-weight="700">RISE</text>
  <defs>
    <linearGradient id="bg" x1="0" y1="0" x2="1200" y2="750" gradientUnits="userSpaceOnUse">
      <stop stop-color="#005CA8"/>
      <stop offset="1" stop-color="#DFF3FF"/>
    </linearGradient>
    <radialGradient id="glow" cx="0" cy="0" r="1" gradientUnits="userSpaceOnUse" gradientTransform="translate(270 230) rotate(90) scale(160)">
      <stop stop-color="#68D0FF"/>
      <stop offset="1" stop-color="#0D7CCB"/>
    </radialGradient>
  </defs>
</svg>
