<svg width="1200" height="750" viewBox="0 0 1200 750" fill="none" xmlns="http://www.w3.org/2000/svg">
  <rect width="1200" height="750" rx="48" fill="url(#bg)"/>
  <circle cx="600" cy="360" r="146" fill="url(#core)"/>
  <circle cx="600" cy="360" r="112" stroke="#FFFFFF" stroke-opacity="0.46" stroke-width="4"/>
  <path d="M494 360H706M600 254V466M530 286C554 304 575 331 589 360C604 389 628 418 666 438M534 438C559 419 580 392 594 360C606 331 627 304 665 286" stroke="#FFFFFF" stroke-opacity="0.52" stroke-width="4" stroke-linecap="round"/>
  <circle cx="286" cy="222" r="54" fill="#E6F7FF"/>
  <circle cx="920" cy="214" r="54" fill="#E6F7FF"/>
  <circle cx="968" cy="536" r="54" fill="#E6F7FF"/>
  <circle cx="252" cy="534" r="54" fill="#E6F7FF"/>
  <circle cx="600" cy="128" r="54" fill="#E6F7FF"/>
  <path d="M334 244L500 314M646 296L874 236M660 414L920 510M490 414L302 508M600 182V250" stroke="#FFFFFF" stroke-opacity="0.52" stroke-width="8" stroke-linecap="round"/>
  <path d="M566 514C586 476 638 476 658 514C665 530 666 547 662 562C652 599 600 626 600 626C600 626 548 599 538 562C534 547 535 530 542 514C547 504 555 497 566 494Z" fill="#EFFFFF" fill-opacity="0.96"/>
  <path d="M600 608C600 608 648 584 656 549C661 527 646 500 620 500C608 500 600 506 600 506C600 506 592 500 580 500C554 500 539 527 544 549C552 584 600 608 600 608Z" fill="#37C874"/>
  <circle cx="286" cy="222" r="14" fill="#005CA8"/>
  <circle cx="920" cy="214" r="14" fill="#005CA8"/>
  <circle cx="968" cy="536" r="14" fill="#005CA8"/>
  <circle cx="252" cy="534" r="14" fill="#005CA8"/>
  <circle cx="600" cy="128" r="14" fill="#005CA8"/>
  <defs>
    <linearGradient id="bg" x1="120" y1="60" x2="1120" y2="700" gradientUnits="userSpaceOnUse">
      <stop stop-color="#0B6AB5"/>
      <stop offset="1" stop-color="#D9F4FF"/>
    </linearGradient>
    <radialGradient id="core" cx="0" cy="0" r="1" gradientUnits="userSpaceOnUse" gradientTransform="translate(600 360) rotate(90) scale(146)">
      <stop stop-color="#79D7FF"/>
      <stop offset="1" stop-color="#0E79C8"/>
    </radialGradient>
  </defs>
</svg>
