<svg width="1200" height="750" viewBox="0 0 1200 750" fill="none" xmlns="http://www.w3.org/2000/svg">
  <rect width="1200" height="750" rx="48" fill="url(#bg)"/>
  <path d="M314 136C270 214 224 260 224 328C224 402 283 460 356 460C430 460 490 401 490 328C490 260 442 211 398 136C381 108 331 108 314 136Z" fill="url(#drop)"/>
  <path d="M358 202C322 257 290 292 290 334C290 373 319 406 358 406C398 406 430 373 430 334C430 292 392 257 358 202Z" fill="#DDF7FF" fill-opacity="0.66"/>
  <circle cx="812" cy="356" r="170" stroke="#FFFFFF" stroke-opacity="0.48" stroke-width="34"/>
  <path d="M934 252L1005 274L966 340" stroke="#FFFFFF" stroke-width="30" stroke-linecap="round" stroke-linejoin="round"/>
  <path d="M700 468L627 445L666 380" stroke="#FFFFFF" stroke-width="30" stroke-linecap="round" stroke-linejoin="round"/>
  <path d="M677 342C701 273 756 230 820 230C885 230 940 272 965 338" stroke="#D7F4FF" stroke-width="20" stroke-linecap="round"/>
  <path d="M948 373C925 442 869 485 805 485C739 485 682 441 658 374" stroke="#D7F4FF" stroke-width="20" stroke-linecap="round"/>
  <rect x="208" y="550" width="784" height="92" rx="24" fill="white" fill-opacity="0.36"/>
  <path d="M278 596H922" stroke="#005CA8" stroke-opacity="0.24" stroke-width="4"/>
  <defs>
    <linearGradient id="bg" x1="0" y1="0" x2="1200" y2="750" gradientUnits="userSpaceOnUse">
      <stop stop-color="#005CA8"/>
      <stop offset="1" stop-color="#BEEBFF"/>
    </linearGradient>
    <linearGradient id="drop" x1="224" y1="136" x2="490" y2="460" gradientUnits="userSpaceOnUse">
      <stop stop-color="#9AE1FF"/>
      <stop offset="1" stop-color="#0E79C8"/>
    </linearGradient>
  </defs>
</svg>
